<svg width="1379" height="320" viewBox="0 0 1379 320" fill="none" xmlns="http://www.w3.org/2000/svg">
<path fill-rule="evenodd" clip-rule="evenodd" d="M261 185.087C252.103 187.62 242.711 188.976 233.002 188.976C176.654 188.976 130.975 143.297 130.975 86.949C130.975 76.8939 132.429 67.1785 135.139 58.0018H29.4218C13.1726 58.0018 0 71.1744 0 87.4236V289.58C0 305.829 13.1726 319.002 29.4218 319.002H231.578C247.827 319.002 261 305.829 261 289.58V185.087Z" fill="#262949"/>
<path d="M318.999 72.5C318.999 112.541 286.539 145 246.499 145C206.458 145 173.999 112.541 173.999 72.5C173.999 32.4594 206.458 0 246.499 0C286.539 0 318.999 32.4594 318.999 72.5Z" fill="url(#paint0_linear_29_20)"/>
<path d="M628.426 206.735V316.803H674.136V206.735C674.136 139.086 639.031 94.839 583.448 94.839C556.389 94.839 532.254 110.929 524.209 133.235V97.3987H478.5V316.803H524.209V207.101C524.209 168.339 545.784 140.548 575.404 140.548C607.583 140.548 628.426 166.511 628.426 206.735Z" fill="#262949"/>
<path d="M704.686 206.735C704.686 270.363 751.858 318.997 812.56 318.997C873.262 318.997 920.068 270.363 920.068 206.735C920.068 143.474 873.262 94.839 812.56 94.839C751.858 94.839 704.686 143.474 704.686 206.735ZM812.56 140.548C847.664 140.548 874.359 169.071 874.359 206.735C874.359 244.765 847.664 273.288 812.56 273.288C777.455 273.288 750.395 244.765 750.395 206.735C750.395 169.071 777.455 140.548 812.56 140.548Z" fill="#262949"/>
<path d="M984.944 50.9579L973.973 97.3987H941.428V140.548H973.973V241.474C973.973 295.228 995.914 316.803 1048.21 316.803H1067.22V271.46H1052.59C1029.92 271.46 1019.68 261.586 1019.68 238.915V140.548H1067.22V97.3987H1019.68V50.9579H984.944Z" fill="#262949"/>
<path d="M1144.72 316.803V97.3987H1099.01V316.803H1144.72Z" fill="#262949"/>
<path d="M1378.89 316.803V97.3987H1253.1V81.3091C1253.1 58.6373 1263.34 48.3982 1286.01 48.3982H1300.63V3.42027H1281.62C1229.33 3.42027 1207.39 24.6296 1207.39 78.7493V97.3987H1175.21V140.548H1207.39V316.803H1253.1V140.548H1333.18V316.803H1378.89Z" fill="#262949"/>
<path fill-rule="evenodd" clip-rule="evenodd" d="M1116.58 0C1103.66 0 1099.02 7.08912 1099.02 17.1711V53.822H1134.85C1147.3 53.822 1152.84 49.465 1152.84 37.1775V17.1711C1152.84 5.67134 1145.25 0 1133.59 0H1116.58Z" fill="#262949"/>
<defs>
<linearGradient id="paint0_linear_29_20" x1="290.281" y1="11.2987" x2="220.606" y2="145" gradientUnits="userSpaceOnUse">
<stop stop-color="#FE7970"/>
<stop offset="1" stop-color="#FEB776"/>
</linearGradient>
</defs>
</svg>
